<svg xmlns="http://www.w3.org/2000/svg" width="202.189" height="202.189" viewBox="0 0 202.189 202.189"><g transform="translate(-582.423 -3005.402)"><g transform="translate(683.517 3005.402) rotate(45)" fill="#fffcfa"><path d="M 137.9690093994141 137.9690093994141 L 76.68016052246094 137.9690093994141 L 76.68016052246094 137.9550018310547 L 71.66618347167969 137.96875 C 71.60579681396484 137.9689178466797 71.54491424560547 137.9690093994141 71.48450469970703 137.9690093994141 C 62.50698089599609 137.9690093994141 53.80061721801758 136.2118530273438 45.6072998046875 132.7463684082031 C 41.66889190673828 131.0805511474609 37.86993789672852 129.0184783935547 34.31591415405273 126.6174392700195 C 30.79436874389648 124.2383193969727 27.48268699645996 121.5059127807617 24.47289085388184 118.4961166381836 C 21.46309471130371 115.4863204956055 18.73068618774414 112.1746444702148 16.35157203674316 108.6530990600586 C 13.95052719116211 105.0990753173828 11.88845920562744 101.3001174926758 10.22264099121094 97.36170959472656 C 6.757164001464844 89.16838836669922 5.000004768371582 80.46202850341797 5.000004768371582 71.48450469970703 C 5.000004768371582 62.50698089599609 6.757164001464844 53.80061721801758 10.22264099121094 45.6072998046875 C 11.88845920562744 41.66889190673828 13.95052719116211 37.86993789672852 16.35157203674316 34.31591415405273 C 18.73068618774414 30.79436874389648 21.46309471130371 27.48268699645996 24.47289085388184 24.47289085388184 C 27.48268699645996 21.46309471130371 30.79436874389648 18.73068618774414 34.31591415405273 16.35157203674316 C 37.86993789672852 13.95052719116211 41.66889190673828 11.88845920562744 45.6072998046875 10.22264099121094 C 53.80061721801758 6.757164001464844 62.50698089599609 5.000004768371582 71.48450469970703 5.000004768371582 C 80.46202850341797 5.000004768371582 89.16838836669922 6.757164001464844 97.36170959472656 10.22264099121094 C 101.3001174926758 11.88845920562744 105.0990753173828 13.95052719116211 108.6530990600586 16.35157203674316 C 112.1746444702148 18.73068618774414 115.4863204956055 21.46309471130371 118.4961166381836 24.47289085388184 C 121.5059127807617 27.48268699645996 124.2383193969727 30.79436874389648 126.6174392700195 34.31591415405273 C 129.0184783935547 37.86993789672852 131.0805511474609 41.66889190673828 132.7463684082031 45.6072998046875 C 136.2118530273438 53.80061721801758 137.9690093994141 62.50698089599609 137.9690093994141 71.48450469970703 C 137.9690093994141 71.54489135742188 137.9689178466797 71.60579681396484 137.96875 71.66618347167969 L 137.9547271728516 76.68016052246094 L 137.9690093994141 76.68016052246094 L 137.9690093994141 137.9690093994141 Z" stroke="none"/><path d="M 132.9690093994141 132.9690093994141 L 132.9690093994141 71.48450469970703 C 132.9690093994141 37.58183670043945 105.3871688842773 10.00000476837158 71.48450469970703 10.00000476837158 C 37.58183670043945 10.00000476837158 10.00000476837158 37.58183670043945 10.00000476837158 71.48450469970703 C 10.00000476837158 105.3871688842773 37.58183670043945 132.9690093994141 71.68016815185547 132.9690093994141 L 132.9690093994141 132.9690093994141 M 142.9690093994141 142.9690093994141 L 71.68016815185547 142.9687194824219 C 32.15708541870117 143.06982421875 4.699707005784148e-06 111.0292892456055 4.699707005784148e-06 71.48450469970703 C 4.699707005784148e-06 32.00478363037109 32.00478363037109 4.699707005784148e-06 71.48450469970703 4.699707005784148e-06 C 110.9642562866211 4.699707005784148e-06 142.9690093994141 32.00478363037109 142.9690093994141 71.48450469970703 C 142.9690093994141 71.549560546875 142.9688873291016 71.61514282226562 142.9687194824219 71.68014526367188 L 142.9690093994141 71.68014526367188 L 142.9690093994141 142.9690093994141 Z" stroke="none" fill="#061748"/></g><g transform="translate(-2990.981 506.871)"><rect width="71.208" height="50.932" transform="translate(3638.981 2573.691)" fill="none" stroke="#ed6a1f" stroke-linecap="round" stroke-linejoin="round" stroke-width="4"/><path d="M3650.986,2584.7l33.385,28.853,33.015-28.853" transform="translate(-9.786 -8.97)" fill="none" stroke="#ed6a1f" stroke-linecap="round" stroke-linejoin="round" stroke-width="4"/><line y1="27.111" x2="25.55" transform="translate(3639.478 2596.334)" fill="none" stroke="#ed6a1f" stroke-linecap="round" stroke-linejoin="round" stroke-width="4"/><line x2="26.17" y2="28.289" transform="translate(3684.019 2596.334)" fill="none" stroke="#ed6a1f" stroke-linecap="round" stroke-linejoin="round" stroke-width="4"/></g></g></svg>