<svg xmlns="http://www.w3.org/2000/svg" width="51.203" height="51.203" viewBox="0 0 51.203 51.203"><g transform="translate(-4.079 -4.079)"><path d="M29.681,8.692c6.836,0,7.646.026,10.345.149a14.17,14.17,0,0,1,4.754.881,8.479,8.479,0,0,1,4.859,4.859,14.17,14.17,0,0,1,.881,4.754c.123,2.7.149,3.509.149,10.345s-.026,7.646-.149,10.345a14.17,14.17,0,0,1-.881,4.754,8.479,8.479,0,0,1-4.859,4.859,14.17,14.17,0,0,1-4.754.881c-2.7.123-3.509.149-10.345.149s-7.646-.026-10.345-.149a14.17,14.17,0,0,1-4.754-.881A8.479,8.479,0,0,1,9.723,44.78a14.17,14.17,0,0,1-.881-4.754c-.123-2.7-.149-3.509-.149-10.345s.026-7.646.149-10.345a14.17,14.17,0,0,1,.881-4.754,8.479,8.479,0,0,1,4.859-4.859,14.17,14.17,0,0,1,4.754-.881c2.7-.123,3.509-.149,10.345-.149m0-4.613c-6.953,0-7.825.029-10.555.154a18.792,18.792,0,0,0-6.215,1.19,13.091,13.091,0,0,0-7.487,7.487,18.792,18.792,0,0,0-1.19,6.215c-.125,2.731-.154,3.6-.154,10.555s.029,7.825.154,10.555a18.792,18.792,0,0,0,1.19,6.215,13.091,13.091,0,0,0,7.487,7.487,18.792,18.792,0,0,0,6.215,1.19c2.731.125,3.6.154,10.555.154s7.825-.029,10.555-.154a18.792,18.792,0,0,0,6.215-1.19,13.091,13.091,0,0,0,7.487-7.487,18.792,18.792,0,0,0,1.19-6.215c.125-2.731.154-3.6.154-10.555s-.029-7.825-.154-10.555a18.792,18.792,0,0,0-1.19-6.215,13.091,13.091,0,0,0-7.487-7.487,18.792,18.792,0,0,0-6.215-1.19c-2.731-.125-3.6-.154-10.555-.154Z" fill="#fbf6f3"/><path d="M139.782,126.635a13.147,13.147,0,1,0,13.147,13.147A13.147,13.147,0,0,0,139.782,126.635Zm0,21.681a8.534,8.534,0,1,1,8.534-8.534A8.534,8.534,0,0,1,139.782,148.316Z" transform="translate(-110.101 -110.101)" fill="#fbf6f3"/><circle cx="3.072" cy="3.072" r="3.072" transform="translate(40.275 12.942)" fill="#fbf6f3"/></g></svg>