<svg xmlns="http://www.w3.org/2000/svg" width="284.213" height="284.213" viewBox="0 0 284.213 284.213"><g transform="translate(142.107) rotate(45)" fill="#fffcfa"><path d="M 195.9690093994141 195.9690093994141 L 105.7595367431641 195.9690093994141 L 105.7595367431641 195.9561157226562 L 100.7466506958008 195.9686584472656 C 100.6595611572266 195.9688568115234 100.5716781616211 195.9690093994141 100.484504699707 195.9690093994141 C 94.00273895263672 195.9690093994141 87.52653503417969 195.3162994384766 81.23580169677734 194.0290374755859 C 75.10744476318359 192.7749786376953 69.07944488525391 190.9037628173828 63.31921005249023 188.4673919677734 C 57.66244506835938 186.0747985839844 52.20609283447266 183.1131286621094 47.10174179077148 179.6646881103516 C 42.04459381103516 176.2481536865234 37.28891754150391 172.3243255615234 32.96680068969727 168.0022125244141 C 28.64468193054199 163.6800994873047 24.72085762023926 158.9244232177734 21.30432891845703 153.8672637939453 C 17.85588645935059 148.7629089355469 14.8942403793335 143.3065948486328 12.50162220001221 137.6497955322266 C 10.06523990631104 131.8895568847656 8.194034576416016 125.8615646362305 6.940004825592041 119.7332382202148 C 5.652710437774658 113.4424743652344 5.000004768371582 106.9662704467773 5.000004768371582 100.484504699707 C 5.000004768371582 94.00273895263672 5.652710437774658 87.52653503417969 6.939975261688232 81.23577117919922 C 8.194034576416016 75.10744476318359 10.06523990631104 69.07944488525391 12.50162220001221 63.31921005249023 C 14.89421081542969 57.66241836547852 17.85588645935059 52.20609283447266 21.30432891845703 47.10174179077148 C 24.72085762023926 42.04459381103516 28.64468193054199 37.28891754150391 32.96680068969727 32.96680068969727 C 37.28891754150391 28.64468193054199 42.04459381103516 24.72085762023926 47.10174179077148 21.30432891845703 C 52.20609283447266 17.85588645935059 57.66241836547852 14.89421081542969 63.31921005249023 12.50162220001221 C 69.07944488525391 10.06523990631104 75.10744476318359 8.194034576416016 81.23577117919922 6.939975261688232 C 87.52653503417969 5.652710437774658 94.00273895263672 5.000004768371582 100.484504699707 5.000004768371582 C 106.9662704467773 5.000004768371582 113.4424743652344 5.652710437774658 119.7332382202148 6.940004825592041 C 125.8615646362305 8.194034576416016 131.8895568847656 10.06523990631104 137.6497955322266 12.50162220001221 C 143.3065948486328 14.8942403793335 148.7629089355469 17.85588645935059 153.8672637939453 21.30432891845703 C 158.9244232177734 24.72085762023926 163.6800994873047 28.64468193054199 168.0022125244141 32.96680068969727 C 172.3243255615234 37.28891754150391 176.2481536865234 42.04459381103516 179.6646881103516 47.10174179077148 C 183.1131286621094 52.20609283447266 186.0747985839844 57.66244506835938 188.4673919677734 63.31921005249023 C 190.9037628173828 69.07944488525391 192.7749786376953 75.10744476318359 194.0290374755859 81.23580169677734 C 195.3162994384766 87.52653503417969 195.9690093994141 94.00273895263672 195.9690093994141 100.484504699707 C 195.9690093994141 100.5716781616211 195.9688568115234 100.6595611572266 195.9686584472656 100.7466506958008 L 195.9557342529297 105.7595367431641 L 195.9690093994141 105.7595367431641 L 195.9690093994141 195.9690093994141 Z" stroke="none"/><path d="M 190.9690093994141 190.9690093994141 L 190.9690093994141 100.484504699707 C 190.9690093994141 50.59118270874023 150.3778228759766 10.00000476837158 100.484504699707 10.00000476837158 C 50.59118270874023 10.00000476837158 10.00000476837158 50.59118270874023 10.00000476837158 100.484504699707 C 10.00000476837158 150.3778228759766 50.59118270874023 190.9690093994141 100.7595367431641 190.9690093994141 L 190.9690093994141 190.9690093994141 M 200.9690093994141 200.9690093994141 L 100.7595367431641 200.9686431884766 C 100.6681442260742 200.9688568115234 100.5759658813477 200.9690093994141 100.484504699707 200.9690093994141 C 44.98854064941406 200.9690093994141 4.699707005784148e-06 155.98046875 4.699707005784148e-06 100.484504699707 C 4.699707005784148e-06 44.98854064941406 44.98854064941406 4.699707005784148e-06 100.484504699707 4.699707005784148e-06 C 155.98046875 4.699707005784148e-06 200.9690093994141 44.98854064941406 200.9690093994141 100.484504699707 C 200.9690093994141 100.5759658813477 200.9688568115234 100.6681442260742 200.9686431884766 100.7595367431641 L 200.9690093994141 100.7595367431641 L 200.9690093994141 200.9690093994141 Z" stroke="none" fill="#f47734"/></g></svg>